<svg width="18" height="14" viewBox="0 0 18 14" fill="none" xmlns="http://www.w3.org/2000/svg">
<mask id="path-1-inside-1_215_344" fill="white">
<path fill-rule="evenodd" clip-rule="evenodd" d="M3.875 10.125H1.25V12.75H3.875V10.125ZM0.5 8.875C0.223858 8.875 0 9.09886 0 9.375V13.5C0 13.7761 0.223858 14 0.5 14H4.625C4.90114 14 5.125 13.7761 5.125 13.5V9.375C5.125 9.09886 4.90114 8.875 4.625 8.875H0.5Z"/>
<path fill-rule="evenodd" clip-rule="evenodd" d="M10.3125 10.125H7.6875V12.75H10.3125V10.125ZM6.9375 8.875C6.66136 8.875 6.4375 9.09886 6.4375 9.375V13.5C6.4375 13.7761 6.66136 14 6.9375 14H11.0625C11.3386 14 11.5625 13.7761 11.5625 13.5V9.375C11.5625 9.09886 11.3386 8.875 11.0625 8.875H6.9375Z"/>
<path fill-rule="evenodd" clip-rule="evenodd" d="M10.3125 1.25H7.6875V3.875H10.3125V1.25ZM6.9375 0C6.66136 0 6.4375 0.223858 6.4375 0.5V4.625C6.4375 4.90114 6.66136 5.125 6.9375 5.125H11.0625C11.3386 5.125 11.5625 4.90114 11.5625 4.625V0.5C11.5625 0.223858 11.3386 0 11.0625 0H6.9375Z"/>
<path fill-rule="evenodd" clip-rule="evenodd" d="M8.375 6.375V5.125H9.625V6.375H15.5625C15.8386 6.375 16.0625 6.59886 16.0625 6.875V8.875H14.8125V7.625H9.625V8.875H8.375V7.625H3.1875V8.875H1.9375V6.875C1.9375 6.59886 2.16136 6.375 2.4375 6.375H8.375Z"/>
<path fill-rule="evenodd" clip-rule="evenodd" d="M16.75 10.125H14.125V12.75H16.75V10.125ZM13.375 8.875C13.0989 8.875 12.875 9.09886 12.875 9.375V13.5C12.875 13.7761 13.0989 14 13.375 14H17.5C17.7761 14 18 13.7761 18 13.5V9.375C18 9.09886 17.7761 8.875 17.5 8.875H13.375Z"/>
</mask>
<path fill-rule="evenodd" clip-rule="evenodd" d="M3.875 10.125H1.25V12.75H3.875V10.125ZM0.5 8.875C0.223858 8.875 0 9.09886 0 9.375V13.5C0 13.7761 0.223858 14 0.5 14H4.625C4.90114 14 5.125 13.7761 5.125 13.5V9.375C5.125 9.09886 4.90114 8.875 4.625 8.875H0.5Z" fill="black"/>
<path fill-rule="evenodd" clip-rule="evenodd" d="M10.3125 10.125H7.6875V12.75H10.3125V10.125ZM6.9375 8.875C6.66136 8.875 6.4375 9.09886 6.4375 9.375V13.5C6.4375 13.7761 6.66136 14 6.9375 14H11.0625C11.3386 14 11.5625 13.7761 11.5625 13.5V9.375C11.5625 9.09886 11.3386 8.875 11.0625 8.875H6.9375Z" fill="black"/>
<path fill-rule="evenodd" clip-rule="evenodd" d="M10.3125 1.25H7.6875V3.875H10.3125V1.25ZM6.9375 0C6.66136 0 6.4375 0.223858 6.4375 0.5V4.625C6.4375 4.90114 6.66136 5.125 6.9375 5.125H11.0625C11.3386 5.125 11.5625 4.90114 11.5625 4.625V0.5C11.5625 0.223858 11.3386 0 11.0625 0H6.9375Z" fill="black"/>
<path fill-rule="evenodd" clip-rule="evenodd" d="M8.375 6.375V5.125H9.625V6.375H15.5625C15.8386 6.375 16.0625 6.59886 16.0625 6.875V8.875H14.8125V7.625H9.625V8.875H8.375V7.625H3.1875V8.875H1.9375V6.875C1.9375 6.59886 2.16136 6.375 2.4375 6.375H8.375Z" fill="black"/>
<path fill-rule="evenodd" clip-rule="evenodd" d="M16.75 10.125H14.125V12.75H16.75V10.125ZM13.375 8.875C13.0989 8.875 12.875 9.09886 12.875 9.375V13.5C12.875 13.7761 13.0989 14 13.375 14H17.5C17.7761 14 18 13.7761 18 13.5V9.375C18 9.09886 17.7761 8.875 17.5 8.875H13.375Z" fill="black"/>
<path d="M1.25 10.125V-29.875H-38.75V10.125H1.25ZM3.875 10.125H43.875V-29.875H3.875V10.125ZM1.25 12.75H-38.75V52.75H1.25V12.75ZM3.875 12.75V52.75H43.875V12.75H3.875ZM7.6875 10.125V-29.875H-32.3125V10.125H7.6875ZM10.3125 10.125H50.3125V-29.875H10.3125V10.125ZM7.6875 12.75H-32.3125V52.75H7.6875V12.75ZM10.3125 12.75V52.75H50.3125V12.75H10.3125ZM7.6875 1.25V-38.75H-32.3125V1.25H7.6875ZM10.3125 1.25H50.3125V-38.75H10.3125V1.25ZM7.6875 3.875H-32.3125V43.875H7.6875V3.875ZM10.3125 3.875V43.875H50.3125V3.875H10.3125ZM8.375 5.125V-34.875H-31.625V5.125H8.375ZM8.375 6.375V46.375H48.375V6.375H8.375ZM9.625 5.125H49.625V-34.875H9.625V5.125ZM9.625 6.375H-30.375V46.375H9.625V6.375ZM16.0625 8.875V48.875H56.0625V8.875H16.0625ZM14.8125 8.875H-25.1875V48.875H14.8125V8.875ZM14.8125 7.625H54.8125V-32.375H14.8125V7.625ZM9.625 7.625V-32.375H-30.375V7.625H9.625ZM9.625 8.875V48.875H49.625V8.875H9.625ZM8.375 8.875H-31.625V48.875H8.375V8.875ZM8.375 7.625H48.375V-32.375H8.375V7.625ZM3.1875 7.625V-32.375H-36.8125V7.625H3.1875ZM3.1875 8.875V48.875H43.1875V8.875H3.1875ZM1.9375 8.875H-38.0625V48.875H1.9375V8.875ZM14.125 10.125V-29.875H-25.875V10.125H14.125ZM16.75 10.125H56.75V-29.875H16.75V10.125ZM14.125 12.75H-25.875V52.75H14.125V12.75ZM16.75 12.75V52.75H56.75V12.75H16.75ZM1.25 50.125H3.875V-29.875H1.25V50.125ZM41.25 12.75V10.125H-38.75V12.75H41.25ZM3.875 -27.25H1.25V52.75H3.875V-27.25ZM-36.125 10.125V12.75H43.875V10.125H-36.125ZM0.5 48.875H4.625V-31.125H0.5V48.875ZM40 13.5V9.375H-40V13.5H40ZM4.625 -26H0.5V54H4.625V-26ZM-34.875 9.375V13.5H45.125V9.375H-34.875ZM7.6875 50.125H10.3125V-29.875H7.6875V50.125ZM47.6875 12.75V10.125H-32.3125V12.75H47.6875ZM10.3125 -27.25H7.6875V52.75H10.3125V-27.25ZM-29.6875 10.125V12.75H50.3125V10.125H-29.6875ZM6.9375 48.875H11.0625V-31.125H6.9375V48.875ZM46.4375 13.5V9.375H-33.5625V13.5H46.4375ZM11.0625 -26H6.9375V54H11.0625V-26ZM-28.4375 9.375V13.5H51.5625V9.375H-28.4375ZM7.6875 41.25H10.3125V-38.75H7.6875V41.25ZM47.6875 3.875V1.25H-32.3125V3.875H47.6875ZM10.3125 -36.125H7.6875V43.875H10.3125V-36.125ZM-29.6875 1.25V3.875H50.3125V1.25H-29.6875ZM6.9375 40H11.0625V-40H6.9375V40ZM46.4375 4.625V0.5H-33.5625V4.625H46.4375ZM11.0625 -34.875H6.9375V45.125H11.0625V-34.875ZM-28.4375 0.5V4.625H51.5625V0.5H-28.4375ZM-31.625 5.125V6.375H48.375V5.125H-31.625ZM9.625 -34.875H8.375V45.125H9.625V-34.875ZM49.625 6.375V5.125H-30.375V6.375H49.625ZM14.8125 48.875H16.0625V-31.125H14.8125V48.875ZM-25.1875 7.625V8.875H54.8125V7.625H-25.1875ZM9.625 47.625H14.8125V-32.375H9.625V47.625ZM49.625 8.875V7.625H-30.375V8.875H49.625ZM8.375 48.875H9.625V-31.125H8.375V48.875ZM-31.625 7.625V8.875H48.375V7.625H-31.625ZM3.1875 47.625H8.375V-32.375H3.1875V47.625ZM43.1875 8.875V7.625H-36.8125V8.875H43.1875ZM1.9375 48.875H3.1875V-31.125H1.9375V48.875ZM15.5625 -33.625H9.625V46.375H15.5625V-33.625ZM56.0625 8.875V6.875H-23.9375V8.875H56.0625ZM-38.0625 6.875V8.875H41.9375V6.875H-38.0625ZM8.375 -33.625H2.4375V46.375H8.375V-33.625ZM14.125 50.125H16.75V-29.875H14.125V50.125ZM54.125 12.75V10.125H-25.875V12.75H54.125ZM16.75 -27.25H14.125V52.75H16.75V-27.25ZM-23.25 10.125V12.75H56.75V10.125H-23.25ZM13.375 48.875H17.5V-31.125H13.375V48.875ZM52.875 13.5V9.375H-27.125V13.5H52.875ZM17.5 -26H13.375V54H17.5V-26ZM-22 9.375V13.5H58V9.375H-22ZM17.5 48.875C-4.31525 48.875 -22 31.1902 -22 9.375H58C58 -12.9925 39.8675 -31.125 17.5 -31.125V48.875ZM41.9375 6.875C41.9375 28.6902 24.2527 46.375 2.4375 46.375V-33.625C-19.93 -33.625 -38.0625 -15.4925 -38.0625 6.875H41.9375ZM17.5 54C39.8675 54 58 35.8675 58 13.5H-22C-22 -8.31525 -4.31525 -26 17.5 -26V54ZM11.0625 40C-10.7527 40 -28.4375 22.3153 -28.4375 0.5H51.5625C51.5625 -21.8675 33.43 -40 11.0625 -40V40ZM-27.125 13.5C-27.125 35.8675 -8.99253 54 13.375 54V-26C35.1902 -26 52.875 -8.31525 52.875 13.5H-27.125ZM11.0625 45.125C33.43 45.125 51.5625 26.9925 51.5625 4.625H-28.4375C-28.4375 -17.1902 -10.7527 -34.875 11.0625 -34.875V45.125ZM13.375 -31.125C-8.99253 -31.125 -27.125 -12.9925 -27.125 9.375H52.875C52.875 31.1902 35.1902 48.875 13.375 48.875V-31.125ZM-33.5625 4.625C-33.5625 26.9925 -15.43 45.125 6.9375 45.125V-34.875C28.7527 -34.875 46.4375 -17.1902 46.4375 4.625H-33.5625ZM6.9375 -40C-15.43 -40 -33.5625 -21.8675 -33.5625 0.5H46.4375C46.4375 22.3152 28.7528 40 6.9375 40V-40ZM11.0625 54C33.43 54 51.5625 35.8675 51.5625 13.5H-28.4375C-28.4375 -8.31525 -10.7527 -26 11.0625 -26V54ZM-33.5625 13.5C-33.5625 35.8675 -15.43 54 6.9375 54V-26C28.7527 -26 46.4375 -8.31525 46.4375 13.5H-33.5625ZM6.9375 -31.125C-15.43 -31.125 -33.5625 -12.9925 -33.5625 9.375H46.4375C46.4375 31.1902 28.7527 48.875 6.9375 48.875V-31.125ZM4.625 48.875C-17.1902 48.875 -34.875 31.1902 -34.875 9.375H45.125C45.125 -12.9925 26.9925 -31.125 4.625 -31.125V48.875ZM4.625 54C26.9925 54 45.125 35.8675 45.125 13.5H-34.875C-34.875 -8.31525 -17.1902 -26 4.625 -26V54ZM15.5625 46.375C-6.25275 46.375 -23.9375 28.6902 -23.9375 6.875H56.0625C56.0625 -15.4925 37.93 -33.625 15.5625 -33.625V46.375ZM-40 13.5C-40 35.8675 -21.8675 54 0.5 54V-26C22.3152 -26 40 -8.31526 40 13.5H-40ZM11.0625 48.875C-10.7527 48.875 -28.4375 31.1902 -28.4375 9.375H51.5625C51.5625 -12.9925 33.43 -31.125 11.0625 -31.125V48.875ZM0.5 -31.125C-21.8675 -31.125 -40 -12.9925 -40 9.375H40C40 31.1902 22.3153 48.875 0.5 48.875V-31.125Z" fill="#D72B00" mask="url(#path-1-inside-1_215_344)"/>
</svg>
