<svg width="25" height="39" viewBox="0 0 25 39" fill="none" xmlns="http://www.w3.org/2000/svg">
<path d="M11.2301 37.3636V37.8636H11.7301H14.0597H14.5597V37.3636V34.6396C16.1874 34.4974 17.6363 34.1393 18.8994 33.5565C20.5799 32.7853 21.8841 31.7206 22.7859 30.3532C23.6966 28.9868 24.1477 27.4261 24.1477 25.6875C24.1477 24.3149 23.8741 23.1059 23.3045 22.0799C22.7602 21.0826 22.0423 20.2428 21.1523 19.5653C20.2828 18.9032 19.3387 18.3694 18.3213 17.9644C17.3277 17.5689 16.3551 17.2541 15.4037 17.0209L14.5597 16.8014V8.66226C15.4507 8.82219 16.2147 9.1268 16.8606 9.56668L16.863 9.56833C17.8367 10.223 18.3847 11.1318 18.5202 12.3344L18.5702 12.7784H19.017H23.25H23.7623L23.7499 12.2663C23.7097 10.6085 23.2253 9.12698 22.2918 7.83811C21.3642 6.54784 20.0993 5.54388 18.5148 4.82087C17.3243 4.27438 16.0042 3.93755 14.5597 3.80429V1V0.5H14.0597H11.7301H11.2301V1V3.84891C9.94169 4.00651 8.74188 4.33356 7.63358 4.8335C6.00918 5.55677 4.70601 6.58007 3.74052 7.90762C2.76395 9.2504 2.28125 10.8185 2.28125 12.5909C2.28125 14.7415 3.00592 16.5107 4.47616 17.8472L4.47745 17.8484C5.91466 19.1459 7.83853 20.1091 10.2209 20.758L11.2301 21.0332V29.7299C10.7689 29.6519 10.3289 29.5393 9.90945 29.3927C9.04674 29.0785 8.34951 28.6091 7.80454 27.9885C7.28698 27.3794 6.97969 26.6081 6.90177 25.6471L6.86451 25.1875H6.40341H2H1.47224L1.50073 25.7145C1.59985 27.5483 2.12255 29.1565 3.08257 30.5207L3.08358 30.5221C4.0419 31.8739 5.36331 32.9085 7.02801 33.6319C8.27079 34.1719 9.67334 34.5059 11.2301 34.6411V37.3636ZM14.5597 29.7163V21.9523C15.2238 22.1569 15.833 22.3806 16.3879 22.623L16.3899 22.6238C17.1713 22.9612 17.7632 23.3766 18.187 23.8586L18.187 23.8586L18.1902 23.8622C18.5868 24.3045 18.8011 24.8843 18.8011 25.6449C18.8011 26.4849 18.5563 27.2028 18.0712 27.8202C17.5748 28.4423 16.8833 28.9441 15.9744 29.3149C15.5369 29.4907 15.0657 29.6249 14.5597 29.7163ZM11.2301 8.70168V15.8926C11.0996 15.8493 10.9678 15.8041 10.8348 15.7571C10.2519 15.5416 9.70652 15.2777 9.19792 14.9659C8.72625 14.6619 8.34844 14.2908 8.05829 13.8523C7.79694 13.4436 7.65625 12.945 7.65625 12.3352C7.65625 11.6147 7.86086 10.9854 8.26888 10.4303C8.69046 9.86009 9.29047 9.39993 10.0929 9.05978L10.0929 9.0598L10.0971 9.05797C10.4428 8.90766 10.8201 8.78843 11.2301 8.70168Z" stroke="url(#paint0_linear_62_1999)"/>
<defs>
<linearGradient id="paint0_linear_62_1999" x1="12.8239" y1="1" x2="12.8239" y2="37.3636" gradientUnits="userSpaceOnUse">
<stop stop-color="#D72B01"/>
<stop offset="1" stop-color="#FF5900"/>
</linearGradient>
</defs>
</svg>
