<svg width="35" height="35" viewBox="0 0 35 35" fill="none" xmlns="http://www.w3.org/2000/svg">
<path d="M17.5 35C14.7383 35 12.0158 34.3464 9.55517 33.0926C7.09449 31.8388 4.96548 30.0205 3.3422 27.7862C1.71893 25.552 0.647476 22.9653 0.215454 20.2376C-0.216568 17.5099 0.00310468 14.7187 0.856512 12.0922C1.70992 9.46568 3.17283 7.07843 5.12563 5.12563C7.07844 3.17283 9.46569 1.70992 12.0922 0.85651C14.7187 0.00310366 17.5099 -0.216568 20.2376 0.215455C22.9653 0.647478 25.552 1.71893 27.7862 3.34221L26.7576 4.75798C24.7468 3.29704 22.4188 2.33273 19.9638 1.94391C17.5089 1.55509 14.9969 1.75279 12.633 2.52086C10.2691 3.28892 8.12059 4.60554 6.36307 6.36307C4.60555 8.12059 3.28893 10.2691 2.52086 12.633C1.75279 14.9968 1.55509 17.5089 1.94391 19.9638C2.33273 22.4188 3.29703 24.7468 4.75798 26.7576C6.21893 28.7684 8.13504 30.405 10.3496 31.5334C12.5643 32.6618 15.0145 33.25 17.5 33.25V35Z" fill="#D72B00"/>
<path d="M17.5 35C14.7383 35 12.0158 34.3464 9.55517 33.0926C7.09449 31.8388 4.96548 30.0205 3.3422 27.7862C1.71893 25.552 0.647476 22.9653 0.215454 20.2376C-0.216568 17.5099 0.00310468 14.7187 0.856512 12.0922C1.70992 9.46568 3.17283 7.07843 5.12563 5.12563C7.07844 3.17283 9.46569 1.70992 12.0922 0.85651C14.7187 0.00310366 17.5099 -0.216568 20.2376 0.215455C22.9653 0.647478 25.552 1.71893 27.7862 3.34221L17.5 17.5V35Z" fill="#D72B00" fill-opacity="0.41"/>
<path d="M17.5 35C21.1956 35 24.7964 33.83 27.7862 31.6578C30.7761 29.4856 33.0015 26.4226 34.1435 22.9078C35.2855 19.393 35.2855 15.607 34.1435 12.0922C33.0015 8.57745 30.7761 5.51445 27.7862 3.3422L17.5 17.5V35Z" fill="#FFE7E1"/>
</svg>
