<svg width="33" height="30" viewBox="0 0 33 30" fill="none" xmlns="http://www.w3.org/2000/svg">
<path d="M16.1534 2L15.4463 1.29289L16.1534 0.585787L16.8605 1.29289L16.1534 2ZM17.1534 19.6552C17.1534 20.2075 16.7057 20.6552 16.1534 20.6552C15.6011 20.6552 15.1534 20.2075 15.1534 19.6552L17.1534 19.6552ZM5.63788 11.1013L15.4463 1.29289L16.8605 2.70711L7.05209 12.5155L5.63788 11.1013ZM16.8605 1.29289L26.669 11.1013L25.2547 12.5155L15.4463 2.70711L16.8605 1.29289ZM17.1534 2L17.1534 19.6552L15.1534 19.6552L15.1534 2L17.1534 2Z" fill="url(#paint0_linear_62_1985)"/>
<path d="M1.74754 21.6168L1.74754 23.7965C1.74754 26.204 3.62956 28.1558 5.95115 28.1558L26.9692 28.1558C29.2908 28.1558 31.1728 26.204 31.1728 23.7965V21.6168" stroke="#FF5900" stroke-width="2"/>
<defs>
<linearGradient id="paint0_linear_62_1985" x1="16.2116" y1="1.27444" x2="16.2116" y2="20.6226" gradientUnits="userSpaceOnUse">
<stop offset="0.421667" stop-color="#D72B00"/>
<stop offset="1" stop-color="#FF5900"/>
</linearGradient>
</defs>
</svg>
