<svg width="44" height="44" viewBox="0 0 44 44" fill="none" xmlns="http://www.w3.org/2000/svg">
<path d="M25.7471 24.6434L25.0505 23.9469L32.4551 16.5423C32.791 16.2064 33.1121 15.8514 33.4095 15.487C34.2974 14.3969 35.0158 13.1821 35.5446 11.8768C36.1942 10.2714 36.5374 8.5859 36.5667 6.8603C33.4263 6.91574 30.3792 8.02709 27.939 10.0167C27.5748 10.314 27.2197 10.6351 26.8839 10.9709L19.4793 18.3755L18.7828 17.679L26.1874 10.2744C26.5466 9.91518 26.9264 9.57173 27.3164 9.25343C30.062 7.01479 33.5251 5.81512 37.0676 5.87523C37.333 5.87976 37.5471 6.09387 37.5517 6.35931C37.5861 8.38697 37.218 10.3676 36.4577 12.2463C35.8921 13.643 35.1234 14.9428 34.173 16.1094C33.8545 16.4997 33.511 16.8795 33.1518 17.2387L25.7471 24.6434Z" fill="#D72B00"/>
<path d="M12.3687 24.7897L10.0703 22.4912C9.87796 22.2989 9.87796 21.987 10.0703 21.7947L14.8128 17.0522C14.9242 16.9408 15.0823 16.8894 15.2378 16.914L19.2079 17.5409C19.3909 17.5697 19.5422 17.6988 19.5994 17.8751C19.6567 18.0513 19.6103 18.2446 19.4793 18.3756L13.0652 24.7898C12.8729 24.982 12.561 24.982 12.3687 24.7897ZM11.115 22.143L12.717 23.7449L18.099 18.363L15.332 17.9261L11.115 22.143Z" fill="#D72B00"/>
<path d="M18.6642 31.02L20.9622 33.318C21.1545 33.5103 21.465 33.5116 21.6557 33.3209L26.3583 28.6183C26.4688 28.5078 26.5193 28.3507 26.4942 28.1957L25.8537 24.2401C25.8242 24.0577 25.695 23.9066 25.5193 23.8488C25.3436 23.7911 25.1513 23.8365 25.0214 23.9664L18.6612 30.3266C18.4706 30.5172 18.4719 30.8277 18.6642 31.02ZM21.3047 32.2792L19.703 30.6775L25.0397 25.3409L25.4861 28.0978L21.3047 32.2792Z" fill="#D72B00"/>
<path d="M33.4413 16.1453L32.2114 14.9155C32.0191 14.7232 32.0191 14.4113 32.2114 14.219C32.4037 14.0266 32.7156 14.0266 32.9079 14.219L34.1378 15.4488C34.3301 15.6411 34.3301 15.953 34.1378 16.1453C33.9455 16.3376 33.6336 16.3376 33.4413 16.1453Z" fill="#D72B00"/>
<path d="M32.3216 15.0255L27.3229 10.0268C27.1306 9.83452 27.1306 9.52262 27.3229 9.33032C27.5152 9.13801 27.8271 9.13801 28.0194 9.33032L33.0181 14.329C33.2104 14.5213 32.4372 14.0466 32.2449 14.2389C32.0526 14.4312 32.514 15.2179 32.3216 15.0255Z" fill="#D72B00"/>
<path d="M26.9321 16.4933C27.6878 17.249 28.913 17.249 29.6688 16.4933C30.4245 15.7375 30.4245 14.5123 29.6688 13.7565C28.913 13.0008 27.6878 13.0008 26.9321 13.7565C26.1763 14.5123 26.1763 15.7375 26.9321 16.4933Z" fill="#D72B00"/>
<path d="M22.6198 20.8064C23.3755 21.5621 24.6008 21.5621 25.3565 20.8064C26.1122 20.0507 26.1122 18.8254 25.3565 18.0697C24.6008 17.314 23.3755 17.314 22.6198 18.0697C21.8641 18.8254 21.8641 20.0507 22.6198 20.8064Z" fill="#D72B00"/>
<path d="M26.9327 16.4935C27.6884 17.2492 28.9137 17.2492 29.6694 16.4935C30.4251 15.7378 30.4251 14.5125 29.6694 13.7568" fill="#D72B00"/>
<path d="M22.6191 20.8062C23.3748 21.5619 24.6001 21.5619 25.3558 20.8062C26.1115 20.0505 26.1115 18.8252 25.3558 18.0695" fill="#D72B00"/>
<path d="M4.18627 35.0844C3.82164 34.6708 3.86134 34.0397 4.27493 33.6751L11.0157 27.7323C11.4293 27.3676 12.0603 27.4074 12.425 27.8209C12.7896 28.2345 12.7499 28.8656 12.3363 29.2302L5.59556 35.1731C5.18183 35.5378 4.5509 35.498 4.18627 35.0844Z" fill="#D72B00" fill-opacity="0.48"/>
<path d="M6.56261 37.7806C6.19799 37.367 6.23769 36.7359 6.65127 36.3713L13.392 30.4284C13.8056 30.0638 14.4367 30.1035 14.8013 30.5171C15.1659 30.9307 15.1262 31.5618 14.7127 31.9264L7.9719 37.8692C7.55817 38.234 6.92724 38.1942 6.56261 37.7806Z" fill="#D72B00" fill-opacity="0.48"/>
<path d="M12.9729 24.6744L19.2731 31.0787" stroke="#D72B00"/>
</svg>
