<svg width="18" height="20" viewBox="0 0 18 20" fill="none" xmlns="http://www.w3.org/2000/svg">
<path d="M1 9.75773C1 8.23489 1 7.47348 1.31367 6.80419C1.62734 6.13489 2.21642 5.63937 3.39457 4.64832L4.53743 3.68697C6.66694 1.89566 7.73169 1 9 1C10.2683 1 11.3331 1.89566 13.4626 3.68697L14.6054 4.64832C15.7836 5.63937 16.3727 6.13489 16.6863 6.80419C17 7.47348 17 8.23489 17 9.75773V14.5137C17 16.6285 17 17.686 16.3305 18.343C15.6611 19 14.5836 19 12.4286 19H5.57143C3.41644 19 2.33894 19 1.66947 18.343C1 17.686 1 16.6285 1 14.5137V9.75773Z" stroke="#5D5D5D" stroke-width="2"/>
<path d="M12 19V13C12 12.4477 11.5523 12 11 12H7C6.44772 12 6 12.4477 6 13V19" stroke="#5D5D5D" stroke-width="2" stroke-linecap="round" stroke-linejoin="round"/>
</svg>
