<svg width="18" height="18" viewBox="0 0 18 18" fill="none" xmlns="http://www.w3.org/2000/svg">
<path fill-rule="evenodd" clip-rule="evenodd" d="M7.58993 0.938167C8.11385 -0.312721 9.88615 -0.312724 10.4101 0.938167L12.1379 5.06335L16.595 5.43182C17.9466 5.54355 18.4943 7.22911 17.4665 8.11393L14.0772 11.0319L15.1041 15.3848C15.4155 16.7047 13.9816 17.7465 12.8225 17.0424L9 14.7207L5.17747 17.0424C4.01836 17.7465 2.58453 16.7048 2.89593 15.3848L3.92285 11.0319L0.533479 8.11393C-0.494287 7.22911 0.0533854 5.54355 1.40495 5.43182L5.86215 5.06335L7.58993 0.938167ZM9 2.84783L7.62267 6.13629C7.40226 6.66254 6.90715 7.02226 6.33855 7.06926L2.78542 7.36299L5.48731 9.6891C5.91969 10.0613 6.1088 10.6434 5.9778 11.1987L5.15918 14.6687L8.20637 12.8178C8.694 12.5216 9.30599 12.5216 9.79363 12.8178L12.8408 14.6687L12.0222 11.1987C11.8912 10.6434 12.0803 10.0613 12.5127 9.6891L15.2146 7.36299L11.6615 7.06926C11.0929 7.02226 10.5977 6.66254 10.3773 6.13629L9 2.84783Z" fill="#5D5D5D"/>
</svg>
